# xmcd
#
# Track frame offsets:
#	150
#	13970
#	33235
#	52163
#
# Disc length: 970 seconds
#
# Revision: 1
# Processed by: cddbd v1.5.1PL0 Copyright (c) Steve Scherf et al.
# Submitted via: audiograbber 1.83.01
#
DISCID=3003c804
DTITLE=Esprit - for you für Dich pour toi
DYEAR=2005
DGENRE=Jazz+Funk
TTITLE0=Autumn leaves
TTITLE1=All at sea
TTITLE2=More than this
TTITLE3=Fragile
EXTD=
EXTT0=
EXTT1=
EXTT2=
EXTT3=
PLAYORDER=
